simulation
nRows=30
nColumns=15
endheader
time  TH_x TH_y TH_z SC_y  SC_z  SC_x  AC_y  AC_z  AC_x  GH_y  GH_z  GH_yy  EL_x  PS_y
0.000000  0.000000  0.000000  0.000000  -26.987189  16.419017  -10.000000  35.780950  18.949052  19.357634  114.884547  7.493467  -128.689349  16.467929  112.243288
0.000234  0.000000  0.000000  0.000000  -26.987189  16.419017  -7.500000  36.445564  17.475424  17.231534  114.884547  7.493467  -128.689349  16.467929  112.243288
0.000468  0.000000  0.000000  0.000000  -26.987189  16.419017  -5.000000  37.047705  15.979549  15.139850  114.884547  7.493467  -128.689349  16.467929  112.243288
0.000702  0.000000  0.000000  0.000000  -26.987189  16.419017  -2.500000  37.588784  14.463784  13.079420  114.884547  7.493467  -128.689349  16.467929  112.243288
0.000936  0.000000  0.000000  0.000000  -26.987189  16.419017  0.000000  38.070109  12.930327  11.047071  114.884547  7.493467  -128.689349  16.467929  112.243288
0.001170  0.000000  0.000000  0.000000  -26.987189  16.419017  2.500000  38.492892  11.381349  9.039674  114.884547  7.493467  -128.689349  16.467929  112.243288
0.001404  0.000000  0.000000  0.000000  -26.987189  16.419017  5.000000  38.858212  9.818917  7.054106  114.884547  7.493467  -128.689349  16.467929  112.243288
0.001638  0.000000  0.000000  0.000000  -26.987189  16.419017  7.500000  39.167023  8.245024  5.087259  114.884547  7.493467  -128.689349  16.467929  112.243288
0.001872  0.000000  0.000000  0.000000  -26.987189  16.419017  10.000000  39.420193  6.661642  3.136058  114.884547  7.493467  -128.689349  16.467929  112.243288
0.002106  0.000000  0.000000  0.000000  -26.987189  16.419017  12.500000  39.618366  5.070644  1.197440  114.884547  7.493467  -128.689349  16.467929  112.243288
0.002340  0.000000  0.000000  0.000000  -26.987189  16.419017  15.000000  39.762099  3.473900  -0.731633  114.884547  7.493467  -128.689349  16.467929  112.243288
0.002574  0.000000  0.000000  0.000000  -26.987189  16.419017  17.500000  39.851797  1.873244  -2.654174  114.884547  7.493467  -128.689349  16.467929  112.243288
0.002808  0.000000  0.000000  0.000000  -26.987189  16.419017  20.000000  39.887702  0.270483  -4.573207  114.884547  7.493467  -128.689349  16.467929  112.243288
0.003042  0.000000  0.000000  0.000000  -26.987189  16.419017  22.500000  39.869917  -1.332580  -6.491733  114.884547  7.493467  -128.689349  16.467929  112.243288
0.003276  0.000000  0.000000  0.000000  -26.987189  16.419017  25.000000  39.798392  -2.934150  -8.412756  114.884547  7.493467  -128.689349  16.467929  112.243288
0.003510  0.000000  0.000000  0.000000  -26.987189  16.419017  27.500000  39.672929  -4.532415  -10.339286  114.884547  7.493467  -128.689349  16.467929  112.243288
0.003744  0.000000  0.000000  0.000000  -26.987189  16.419017  30.000000  39.493182  -6.125548  -12.274341  114.884547  7.493467  -128.689349  16.467929  112.243288
0.003978  0.000000  0.000000  0.000000  -26.987189  16.419017  32.500000  39.258643  -7.711727  -14.220959  114.884547  7.493467  -128.689349  16.467929  112.243288
0.004212  0.000000  0.000000  0.000000  -26.987189  16.419017  35.000000  38.968687  -9.289035  -16.182184  114.884547  7.493467  -128.689349  16.467929  112.243288
0.004445  0.000000  0.000000  0.000000  -26.987189  16.419017  37.500000  38.622529  -10.855554  -18.161090  114.884547  7.493467  -128.689349  16.467929  112.243288
0.004679  0.000000  0.000000  0.000000  -26.987189  16.419017  40.000000  38.219254  -12.409300  -20.160771  114.884547  7.493467  -128.689349  16.467929  112.243288
0.004913  0.000000  0.000000  0.000000  -26.987189  16.419017  42.500000  37.757816  -13.948229  -22.184341  114.884547  7.493467  -128.689349  16.467929  112.243288
0.005147  0.000000  0.000000  0.000000  -26.987189  16.419017  45.000000  37.237045  -15.470214  -24.234944  114.884547  7.493467  -128.689349  16.467929  112.243288
0.005381  0.000000  0.000000  0.000000  -26.987189  16.419017  47.500000  36.655655  -16.973046  -26.315738  114.884547  7.493467  -128.689349  16.467929  112.243288
0.005615  0.000000  0.000000  0.000000  -26.987189  16.419017  50.000000  36.012282  -18.454446  -28.429874  114.884547  7.493467  -128.689349  16.467929  112.243288
0.005849  0.000000  0.000000  0.000000  -26.042024  14.330736  -10.000000  39.119097  12.345774  15.294223  97.500698  3.776279  -81.636807  25.779946  124.495590
0.006083  0.000000  0.000000  0.000000  -26.042024  14.330736  -7.500000  39.514550  10.761591  13.320143  97.500698  3.776279  -81.636807  25.779946  124.495590
0.006317  0.000000  0.000000  0.000000  -26.042024  14.330736  -5.000000  39.852576  9.165070  11.366790  97.500698  3.776279  -81.636807  25.779946  124.495590
0.006551  0.000000  0.000000  0.000000  -26.042024  14.330736  -2.500000  40.134135  7.558169  9.430977  97.500698  3.776279  -81.636807  25.779946  124.495590
0.006785  0.000000  0.000000  0.000000  -26.042024  14.330736  0.000000  40.360023  5.942798  7.509556  97.500698  3.776279  -81.636807  25.779946  124.495590
